<svg width="664" height="121" viewBox="0 0 664 121" fill="none" xmlns="http://www.w3.org/2000/svg">
<path d="M607.736 61.388C605.234 56.6128 597.069 61.5301 593.3 64.5857C591.937 71.9048 589.547 87.2679 590.894 90.1671C592.578 93.7911 602.683 86.9694 605.089 85.264C607.495 83.5586 610.864 67.357 607.736 61.388Z" fill="#D9D9D9"/>
<path d="M602.583 67.3734C600.957 64.269 595.649 67.4658 593.198 69.4522C592.312 74.2104 590.758 84.198 591.634 86.0828C592.729 88.4388 599.299 84.004 600.863 82.8953C602.427 81.7866 604.617 71.2539 602.583 67.3734Z" fill="black"/>
<rect x="552" y="58.1163" width="41.3827" height="44.7674" fill="#D9D9D9"/>
<ellipse cx="572.691" cy="102.884" rx="20.6914" ry="5.11628" fill="#D9D9D9"/>
<ellipse cx="572.691" cy="58.1163" rx="20.6914" ry="5.11628" fill="#D9D9D9"/>
<ellipse cx="572.932" cy="59.3954" rx="18.0448" ry="4.68992" fill="black"/>
<path d="M662 114C447 115.167 13.8 116.8 1 114L77.5 1H556.5L662 114Z" stroke="white"/>
<rect x="1.5" y="114.5" width="660" height="6" stroke="white"/>
</svg>
