<svg width="57" height="55" viewBox="0 0 57 55" fill="none" xmlns="http://www.w3.org/2000/svg">
<path d="M41.2996 11.5856C45.069 8.53008 53.2339 3.61317 55.7361 8.38837C58.8635 14.3576 55.4956 30.5588 53.0897 32.2643C50.6837 33.9698 40.5785 40.7907 38.8943 37.1667C37.5472 34.2669 39.9363 18.9046 41.2996 11.5856ZM50.5838 14.3737C48.9571 11.2693 43.6485 14.4654 41.1981 16.4518C40.3117 21.21 38.7587 31.1978 39.6346 33.0827C40.7295 35.4387 47.299 31.0039 48.8631 29.8952C50.4272 28.7856 52.6167 18.2543 50.5838 14.3737Z" fill="#D9D9D9"/>
<rect y="5.11627" width="41.3827" height="44.7674" fill="#D9D9D9"/>
<ellipse cx="20.6914" cy="49.8837" rx="20.6914" ry="5.11628" fill="#D9D9D9"/>
<ellipse cx="20.6914" cy="5.11628" rx="20.6914" ry="5.11628" fill="#D9D9D9"/>
<ellipse cx="20.9319" cy="6.39537" rx="18.0448" ry="4.68992" fill="black"/>
</svg>
