<svg width="57" height="55" viewBox="0 0 57 55" fill="none" xmlns="http://www.w3.org/2000/svg">
<path d="M55.7359 8.38799C53.2337 3.61279 45.0694 8.53011 41.3001 11.5857C39.9367 18.9048 37.5467 34.2678 38.8941 37.1671C40.5783 40.7911 50.6833 33.9694 53.0893 32.264C55.4953 30.5585 58.8637 14.357 55.7359 8.38799Z" fill="#D9D9D9"/>
<path d="M50.5834 14.3734C48.9567 11.269 43.649 14.4658 41.1985 16.4522C40.3122 21.2104 38.7585 31.198 39.6344 33.0828C40.7293 35.4388 47.2987 31.004 48.8628 29.8953C50.4269 28.7866 52.6167 18.2539 50.5834 14.3734Z" fill="white"/>
<rect y="5.11627" width="41.3827" height="44.7674" fill="#D9D9D9"/>
<ellipse cx="20.6914" cy="49.8837" rx="20.6914" ry="5.11628" fill="#D9D9D9"/>
<ellipse cx="20.6914" cy="5.11628" rx="20.6914" ry="5.11628" fill="#D9D9D9"/>
<ellipse cx="20.9319" cy="6.39537" rx="18.0448" ry="4.68992" fill="black"/>
</svg>
