<svg width="664" height="121" viewBox="0 0 664 121" fill="none" xmlns="http://www.w3.org/2000/svg">
<path d="M662 114L1 114L77.5 1H556.5L662 114Z" stroke="white" stroke-linecap="round" stroke-linejoin="round"/>
<rect x="1" y="114" width="661" height="6" stroke="white" stroke-linecap="round" stroke-linejoin="round"/>
<path d="M606.736 61.388C604.234 56.6128 596.069 61.5301 592.3 64.5857C590.937 71.9048 588.547 87.2679 589.894 90.1671C591.578 93.7911 601.683 86.9694 604.089 85.264C606.495 83.5586 609.864 67.357 606.736 61.388Z" fill="#D9D9D9"/>
<path d="M601.583 67.3734C599.957 64.269 594.649 67.4658 592.199 69.4522C591.312 74.2104 589.758 84.198 590.634 86.0828C591.729 88.4388 598.299 84.004 599.863 82.8953C601.427 81.7866 603.617 71.2539 601.583 67.3734Z" fill="white"/>
<rect x="551" y="58.1163" width="41.3827" height="44.7674" fill="#D9D9D9"/>
<ellipse cx="571.691" cy="102.884" rx="20.6914" ry="5.11628" fill="#D9D9D9"/>
<ellipse cx="571.691" cy="58.1163" rx="20.6914" ry="5.11628" fill="#D9D9D9"/>
<ellipse cx="571.932" cy="59.3954" rx="18.0448" ry="4.68992" fill="black"/>
</svg>
